# xmcd CD database file
#
# Track frame offsets:
#	150
#	11568
#	24434
#	36023
#	48646
#	60462
#	71676
#	84911
#	96814
#	109669
#	120934
#	133054
#	145254
#	158466
#	172103
#	184785
#	197528
#	208527
#	221543
#	234133
#	247323
#	260181
#	274484
#	287216
#	301535
#
# Disc length: 4193 seconds
#
# Revision: 0
# Processed by: cddbd v1.5.2PL0 Copyright (c) Steve Scherf et al.
# Submitted via: CDex 1.51
#
DISCID=63105f19
DTITLE=Ivory Jou Hunter - Blues At Sunrise Cd 2
DYEAR=2002
DGENRE=Jazz
TTITLE0=Don't Be No Fool - Fool
TTITLE1=I Should't Love You
TTITLE2=San Fransisco Blues
TTITLE3=Com On Let Your Hair Down
TTITLE4=All States Boogie
TTITLE5=She's Gone Blues
TTITLE6=No Money No Luck Blues
TTITLE7=Wee Wee Blues
TTITLE8=Landlord Blues
TTITLE9=Old Gal New Gal Blues
TTITLE10=I Like It
TTITLE11=False Friend Blues
TTITLE12=Send Me Pretty Mama
TTITLE13=Waiting In Vain
TTITLE14=Changing Blues
TTITLE15=Please Don't Cry Anymore
TTITLE16=I Got Your Water On
TTITLE17=Guess Who
TTITLE18=I Quit My Pretty Mama
TTITLE19=Lying Woman Blues
TTITLE20=Jealous Heart
TTITLE21=I Almost Lost My Mind
TTITLE22=SP Blues
TTITLE23=I Need You So
TTITLE24=You Thrill Me
EXTD=YEAR: 2002
EXTT0=
EXTT1=
EXTT2=
EXTT3=
EXTT4=
EXTT5=
EXTT6=
EXTT7=
EXTT8=
EXTT9=
EXTT10=
EXTT11=
EXTT12=
EXTT13=
EXTT14=
EXTT15=
EXTT16=
EXTT17=
EXTT18=
EXTT19=
EXTT20=
EXTT21=
EXTT22=
EXTT23=
EXTT24=
PLAYORDER=
